<?xml version="1.0" standalone="no"?>
<svg xmlns="http://www.w3.org/2000/svg" viewBox="0 0 258 69" width="258" height="69"><g fill="#f00707" color="#f00707" transform="translate(111.225 0) scale(0.35) "><g transform="translate(-174.87, -242.37)"><svg width="100.0" height="100.0" x="174.87" y="242.37" viewBox="174.87 242.37 100 100"><g><g><path d="M239.838,134.52v74c0,2.768-2.23,4.996-4.998,4.996h-59.14c-2.769,0-4.998-2.229-4.998-4.996v-81.631    c0-2.77,2.229-4.999,4.998-4.999h51.514L239.838,134.52z M226.533,198.143v-5.736v-9.996v-9.996v-5.924    c0-3.032-2.466-5.497-5.497-5.497h-31.653c-3.03,0-5.498,2.465-5.498,5.497v6.404v9.996v9.994v5.258    c0,3.033,2.468,5.498,5.498,5.498h15.59h16.063C224.067,203.641,226.533,201.176,226.533,198.143z"></path><path d="M225.534,192.885v5.258c0,2.48-2.018,4.498-4.498,4.498h-15.59v-12.754h5.443l3,2.998H225.534z"></path><polygon points="225.534,182.891 225.534,192.406 214.085,192.406 211.337,189.656 211.337,182.891   "></polygon><polygon points="225.534,172.895 225.534,182.41 211.337,182.41 211.337,175.643 214.085,172.895   "></polygon><path d="M225.534,166.49v5.924h-11.645l-3.03,3.031l0.087,0.088h-0.087v13.873h-11.295v-13.514h5.882v-0.359v-0.119v-13.421h15.59    C223.516,161.993,225.534,164.01,225.534,166.49z"></path><path d="M204.972,189.887v12.754h-15.59c-2.479,0-4.498-2.018-4.498-4.498v-5.258h11.648l2.999-2.998H204.972z"></path><path d="M204.972,161.993v13.421h-5.44l-2.999-3h-11.648v-5.924c0-2.48,2.018-4.498,4.498-4.498H204.972z"></path><polygon points="199.086,182.891 199.086,189.656 196.337,192.406 184.885,192.406 184.885,182.891   "></polygon><polygon points="199.086,175.893 199.086,182.41 184.885,182.41 184.885,172.895 196.337,172.895 199.086,175.643   "></polygon></g></g><g><g><path d="M214.362,246.258l-1.687-0.567l-7.03,1.321l-1.532,1.163l0.936,4.833l-2.794,0.113l-1.681,2.704    l-4.003,0.961l0.012,1.968l13.185,10.084l2.249,0.192l7.497-5.861l-0.75-0.945l-1.409-0.189l-0.843-1.417v-5.86l-0.563-0.567    l0.095-1.513l-1.499-1.512l-0.186-1.607l0.655-0.472l-0.282-1.702L214.362,246.258L214.362,246.258z"></path><path d="M203.769,248.241h-4.782l-0.934,2.079l-2.158,1.041l-1.779,4.82l-3.469,2.079l-4.873,8.031l4.781-0.095    l0.188-2.361h1.216v-3.215h4.218l0.095-4.157l4.033-0.944l1.689-2.742l2.624-0.096L203.769,248.241L203.769,248.241z"></path><path d="M185.807,266.623l0.903,1.179l-0.187,5.103l1.313-0.943l0.935-0.191l1.312,0.473l1.499,2.08    l1.408-0.943l6.843-0.097l-1.69-11.435l1.814-0.009l-3.378-2.588l0.003,1.681l-4.276,0.005l-0.021,3.21l-1.23-0.005l-0.156,2.369    L185.807,266.623L185.807,266.623z"></path><path d="M187.968,272.28l-1.631,1.185l-0.373,0.662l-0.115,0.663l0.6,0.431l2.003-0.029l1.288-0.348l0.146,0.634    l-0.116,0.836l1.229,0.605l0.257,0.29l1.631,0.058l0.057-0.721l-1.49-1.79l-1.66-2.249l-1.031-0.431L187.968,272.28    L187.968,272.28z"></path><path d="M186.631,275.601l-0.055,0.46l2.866-0.042l0.145-0.425l-0.061-0.432l-0.825,0.334L186.631,275.601    L186.631,275.601z"></path><path d="M186.589,276.38l0.514,1.247l0.286-0.77l3.482,0.364l-1.508-0.774L186.589,276.38L186.589,276.38z"></path><path d="M187.338,278.166l0.58,1.146l1.627-1.401l0.017-0.43l-1.917-0.278L187.338,278.166L187.338,278.166z"></path><path d="M188.092,279.577l1.259,1.938l1.639-1.423l1.681-0.076l1.399,1.859l1.188,0.783l0.448-0.87l0.397-0.223    l-0.029-1.914l-0.791-2.269l-2.426,0.269l-3.001-0.24l-0.017,0.771L188.092,279.577L188.092,279.577z"></path><path d="M189.546,281.727l2.339,2.263l1.668-2.027l-1.043-1.636l-1.438,0.146L189.546,281.727    L189.546,281.727z"></path><path d="M192.128,284.237l4.545,3.04l-0.107-2.303l-1.375-1.619l-1.34-1.188L192.128,284.237L192.128,284.237z"></path><path d="M197.055,287.367l1.771-1.253l2.203-0.386l2.248,0.484l-1.147-1.736l-0.335-1.06l0.335-3.136l-2.008,0.095    l-0.91-0.87l-1.913,0.052l-0.91,0.143l0.096,2.121l-0.481,0.196l-0.575,1.06l1.483,1.736L197.055,287.367L197.055,287.367z"></path><path d="M191.835,274.566l1.274-0.874l7.087-0.042l-1.64-11.407l1.872-0.054l9.054,6.913l1.217,0.174l-0.459,3.843    l-5.692,0.517l-4.393,3.281l-0.799,2.244l-3.051,0.128l-0.778-2.24l-2.339,0.165l0.09-0.733L191.835,274.566L191.835,274.566z"></path><path d="M204.722,273.92l1.506-0.12l2.472,3.496l-2.293,1.731l-1.66-0.428l-2.231,0.029l-0.36,1.31l-1.872,0.091    l-0.514-0.701l0.663-2.128L204.722,273.92L204.722,273.92z"></path><path d="M208.986,277.118l1.056-0.025l0.953-1.43l1.597-0.285l1.701,1.038l3.631,0.104l2.808-1.143l1.055-0.908    l0.079-1.193l1.958-1.976l0.518-4.362l-1.288-2.7l-3.296-0.804l-7.625,5.948l-1.08-0.104l-0.464,4.129l-3.891,0.39    L208.986,277.118L208.986,277.118z"></path><path d="M202.135,283.35l0.463,1.09l1.208,1.897l0.671-0.025l1.83-1.039l-0.129-5.919l-1.416-0.414l-1.982,0.054    L202.135,283.35L202.135,283.35z"></path><path d="M206.638,285.09l1.109-0.65l-0.025-4.287l-0.721-1.168l-0.463,0.39L206.638,285.09L206.638,285.09z"></path><path d="M208.082,284.362h0.877l0.05-2.493l1.11-1.612l-0.049-2.804l-1.006-0.024l-1.726,1.35l0.719,1.375    L208.082,284.362L208.082,284.362z"></path><path d="M209.267,284.312l1.622,0.079l1.959,2.183l0.952,0.259l0.745-0.363l1.135-0.158l0.384-1.582l1.545-1.014    l1.672-0.08l3.063-5.638l-0.049-1.271l-1.416-1.09l-2.832,1.247l-3.787-0.053l-1.805-1.144l-1.288,0.286l-0.67,1.168l-0.05,3.297    l-1.081,1.533L209.267,284.312L209.267,284.312z"></path><path d="M214.79,246.192l2.289-0.923l0.753,0.489l0.028,0.596l-0.351,0.459l0.053,0.816l0.353,0.191v1.464    l-0.406,0.68l0.053,0.435l1.535,0.543l-1.237,1.925l-0.485-0.028l-0.082,1.549l-0.538,0.083l-0.459-0.406l0.107-1.574    l-1.506-1.466l-0.191-1.275l0.728-0.572L214.79,246.192L214.79,246.192z"></path><path d="M216.918,254.764l0.645-0.107l0.191-1.491h0.323l1.319-2.17l3.258,0.948l0.891,1.384l3.204,1.466    l1.667-0.705l-0.161-0.704l-0.728-0.704l0.081-0.489l1.185-1.002h2.343l0.892,1.192l1.883,0.274l0.244,15.278l-1.399-0.054    l-8.452-4.398l-0.916,0.519l-3.474-0.871l-0.942-1.246l-1.376-0.192l-0.7-1.246L216.918,254.764L216.918,254.764z"></path><path d="M234.253,252.706l1.106,0.029l2.154,0.596l1.021,0.029l1.265-1.06h0.595l1.076,0.596h1.362l0.243-0.017    l0.86,2.477l0.244,0.798l0.229,1.197l-0.406,0.297l-0.699-0.351l-0.808-2.635l-0.727-0.054l-0.055,0.895l0.483,1.548l3.878,4.805    l0.084,2.063l-1.13,1.304l-10.613-0.12L234.253,252.706L234.253,252.706z"></path><path d="M222.191,274.632l0.054-1.222l1.963-1.909l0.525-4.688l-1.309-2.501l0.916-0.468l8.859,4.618l-0.054,4.531    l-1.562,1.33v2.336l1.021,1.979h-1.804l-2.988,2.958l-0.079,0.895l-2.206-0.029l-0.028,0.404l-1.26-0.165l-0.861-1.628    l-0.646-0.318l0.083-0.498l0.812-0.622v-2.907l-1.123-0.174l-1.353-1.006L222.191,274.632L222.191,274.632L222.191,274.632z"></path><path d="M233.517,273.155l0.074-4.901l1.02,0.029l-0.117-2.721l10.681,0.095l1.526-1.541l3.297,5.272l-1.806,2.129    v3.251l-2.839,6.109l-0.977,0.431l0.31,1.702h1.217l1.652,2.399l-1.325,0.169l-0.34,0.616l-0.033,0.892l-3.974-0.072l-0.405-0.617    l-2.778-0.157l-5.099-5.251l0.509-0.307l0.135-1.233l-1.219-0.721l-1.115-2.2l0.063-2.046L233.517,273.155L233.517,273.155z"></path><path d="M215.994,286.346l1.333,1.225l-0.095,1.897l7.31-0.169l0.596-0.671l-2.095-2.259l-0.31-0.815    l1.333-2.497l-0.906-1.656l-0.762-0.411v-0.84l0.882-0.576l0.049-2.618l-0.698-0.078l-0.013,1.375l-3.073,5.737l-1.878,0.094    l-1.288,0.886L215.994,286.346L215.994,286.346z"></path><path d="M248.653,274.094l-0.104-2.439l1.639-1.914l0.442,0.339l0.809,2.702l3.872,2.886l-0.702,0.867    l-2.837-2.44H248.653L248.653,274.094z"></path><path d="M254.766,276.927l-0.233,1.392l1.638-0.026l0.026-2.046l-0.603-0.368L254.766,276.927L254.766,276.927z"></path><path d="M245.663,281.159l3.014-6.709l2.992,0.017l2.655,2.306l-0.188,1.902h2.061l0.21,1.143l3.327,1.993    l2.054,0.103l-3.905,4.196l-5.358,1.652h-1.33l-2.368-2.021l-0.936-0.394l-1.814-2.671l-1.194,0.016l-0.14-1.225L245.663,281.159    L245.663,281.159z"></path><path d="M256.529,278.376l1.69,1.151l0.499-0.025l4.195-1.441l0.475,1.538l-0.333,1.294l-0.907,0.722    l-2.266-0.146l-3.239-1.991L256.529,278.376L256.529,278.376z"></path><path d="M263.25,277.967l1.808-0.696l0.643,0.386l-0.068,1.607l-1.671,4.754l-9.026,9.676l-1.049-0.722    l-0.072-4.083l1.359-1.561l2.881-0.891l4.229-4.464l1.103-0.987l0.312-1.44L263.25,277.967L263.25,277.967z"></path><path d="M223.379,286.25l1.929,2.087l0.763-0.986l1.211,0.05l0.264-0.961l1.19-0.745l2.477,1.707    l1.428-1.417l5.544,0.244l-5.141-5.309l0.688-0.43l0.097-0.936l-1.168-0.551h-1.717l-2.76,2.737l-0.095,1.125l-2.189-0.07    l-0.07,0.481l-1.428-0.145l-1.288,2.448L223.379,286.25L223.379,286.25z"></path><path d="M213.063,291.676l0.476-0.241l0.357,0.291l-0.357,0.55l-0.431-0.171L213.063,291.676L213.063,291.676z"></path><path d="M214.019,290.162l0.716-0.118l0.24,0.456l-0.356,0.385l-0.356-0.049L214.019,290.162L214.019,290.162z"></path><path d="M215.589,287.641l-0.191,0.817l0.572,0.31l0.545-0.41l-0.19-0.841L215.589,287.641L215.589,287.641z"></path><path d="M219.542,289.803l-0.05,1.032l-2.334-0.051l-1.429,2.764l3.358,3.675l0.832-0.696l-0.025-0.722    l-0.572-0.264v-0.505l1.288-0.817l1.142,0.867l1.263,0.023l-0.023-4.344l-2.001-0.096l-0.025-0.912L219.542,289.803    L219.542,289.803z"></path><path d="M217.305,289.828l-0.023,0.575l1.879,0.096l-0.024-0.65L217.305,289.828L217.305,289.828z"></path><path d="M221.45,289.758l-0.025,0.602l1.979,0.048l0.071,5.141l-1.809-0.048l-1.048-0.818l-0.812,0.457    l-0.035,0.229l0.417,0.201l0.12,1.057l-1.118,0.961l0.24,0.503l1.239-0.959h0.597l0.188,0.575l0.787,0.336l2.525-2.136    l-0.05-1.563l0.526-1.271l1.62-1.201l0.432-4.063l-1.148,0.004l-1.334,1.827L221.45,289.758L221.45,289.758z"></path><path d="M219.609,298.337l0.72,0.934l0.932-0.881l-0.273-0.915l-0.233-0.016L219.609,298.337L219.609,298.337z"></path><path d="M220.779,299.363l4.27-0.076l0.863,1.231l-0.032,0.906l0.319,0.291h2.117l0.609-1.197h0.866l0.352,0.355    l1.188-0.032l0.353,4.175l2.052,0.066v0.322l5.519,2.49l0.259,0.484h1.153l-0.129-1.747l-2.086-1.003l0.129-1.325l0.897-2.104    l2.056-0.066l-1.767-5.857l0.032-2.489l2.792-4.366l0.032-0.613l-0.418-0.227l0.017-1.184l-0.508-0.047l-0.512-0.654l-8.426-0.381    l-1.545,1.504l-2.529-1.666l-0.89,0.547l-0.646,5.438l-1.599,1.235l-0.479,1.094l0.087,1.619l-2.881,2.357l-0.766-0.349    l0.104,0.451L220.779,299.363L220.779,299.363z"></path><path d="M240.833,292.815l1.163,1.075l-0.05,1.145l-1.805,0.039v-1.268L240.833,292.815L240.833,292.815z"></path><path d="M240.167,295.428l1.766-0.037l-0.458,1.549l-0.448,0.389h-0.546l-0.39-1.047L240.167,295.428    L240.167,295.428z"></path><path d="M241.03,292.479l1.256,1.176l0.786-0.5l2.127-0.348l0.364,0.037l0.137-0.809l1.203-2.526l-1.013-2.103    l-3.272,0.021l-0.022,0.866l0.438,0.422l-0.066,0.865L241.03,292.479L241.03,292.479z"></path><path d="M246.217,287.273l1.104,2.149l-1.322,2.771l-0.172,0.84l6.593,4.08l2.046-3.213l-1.034-0.842l-0.02-4.233    l1.293-1.417l-2.064,0.686l-1.562,0.021l-2.44-2.062l-0.771-0.332l-1.428,0.132l-0.253,0.422L246.217,287.273L246.217,287.273z"></path><path d="M246.111,305.868l7.231-0.885l-1.628-3.146l-0.087-3.016l0.527-1.441l-6.88-4.325l-2.158,0.357    l-0.75,0.555l-0.063,1.264l-0.484,1.75l-0.508,0.604l-0.724,0.064l1.389,4.81l2.264,1.063l1.56,0.047L246.111,305.868    L246.111,305.868z"></path><path d="M231.199,311.371l1.313,1.821l2.033,0.126l0.717,0.396l2.129,0.024l1.835-2.573l5.123-2.294l0.448-2.019    l-0.596-2.897l-2.674-1.523l-1.783,0.123l-0.894,1.974l0.027,0.898l2.102,1.022l0.127,2.225l-1.812,0.099l-0.445-0.751    l-5.027-2.145l-0.148,1.648l-2.375,0.075L231.199,311.371L231.199,311.371z"></path><path d="M220.464,299.777l1.412,5.272l-0.032,1.666l-2.066,2.219l-0.312,3.607l7.949,0.07l2.584,0.937l2.133-0.276    l-1.242-1.558l0.002-4.449l2.444-0.103v-1.735l-1.982-0.083l-0.397-4.109l-0.836,0.012l-0.451-0.405l-0.494,0.024l-0.653,1.269    h-2.518l-0.584-0.59l0.174-0.831l-0.686-1.006L220.464,299.777L220.464,299.777z"></path><path d="M244.698,309.175l1.289,1.346l-0.026,1.724l0.248,0.725l1.71-1.846l-0.198-2.35l-0.913-0.699l-0.816-4.121    l-1.413-0.051l0.643,2.971L244.698,309.175L244.698,309.175z"></path><path d="M242.219,323.209l1.112,0.921l2.625-1.597l0.424-2.374v-3.918l4.208-3.446l0.722,0.024l2.549-2.448    l-0.396-5.044l-6.763,0.854l0.202,1.523l1.164,0.898l0.271,2.747l-2.276,2.225l-0.547-1.247l0.099-1.649l-1.312-1.424    l-3.222,1.499l2.997,1.524l0.102,4.444l-1.984,2.946L242.219,323.209L242.219,323.209z"></path><path d="M235.385,314.518l3.713,4.194l2.849,0.726l1.909-2.993l-0.148-3.969l-3.098-1.6l-1.164,0.527    l-1.734,2.646l-2.4-0.023L235.385,314.518L235.385,314.518z"></path><path d="M223.748,326.802l1.388,0.1l0.815,0.825l1.93,0.021l0.477-5.49v-3.596l1.236-0.247l0.472-3.77l3.146-0.1    l1.113-0.923l-1.884-0.075l-2.549,0.349l-2.749-1h-7.726l0.197,2.197l2.576,3.794l-0.446,1.946l0.024,1.022L223.748,326.802    L223.748,326.802z"></path><path d="M228.7,322.359l0.888,0.272l-0.123,2.546l0.914,0.126l2.104-1.897l2.526,0.273l0.67-1.699l3.196-2.919    l-3.838-4.419l-0.049-0.726l-0.424-0.124l-1.163,1.073l-3.022,0.074l-0.42,3.769l-1.188,0.274L228.7,322.359L228.7,322.359z"></path><path d="M242.095,323.505l-1.038,0.175l-0.448,1.221l0.794,0.726h0.964l0.817-1.173L242.095,323.505    L242.095,323.505z"></path><path d="M236.522,328.223l1.263-0.974l0.596,0.026l0.721,0.897l-0.073,0.897l-1.213,0.449v0.348l-1.339-0.074    l-0.321-0.977L236.522,328.223L236.522,328.223z"></path><path d="M239.315,319.212l-3.268,3.022l-0.779,1.867l-2.592-0.321l-2.156,1.917l-1.433-0.141l0.115-2.652    l-0.509-0.177l-0.355,5.422l-2.543-0.025l-0.764-0.902l-1.123-0.012l1.023,2.936l1.825,1.726l-1.304,1.52l0.844,1.905l1.955,0.744    l1.558-1.324l4.457,0.026l0.318-0.4l1.979-0.349l6.694-6.664l-0.023-2.1l-0.717,0.928h-1.073l-1.303-1.093l0.661-1.65l1.14-0.232    l-0.104-3.387L239.315,319.212L239.315,319.212z M237.749,326.873l0.623-0.026l1.016,1.103l-0.028,1.276l-1.188,0.6l-0.074,0.425    l-1.814,0.02l-0.567-1.368l0.52-1L237.749,326.873L237.749,326.873z"></path><path d="M271.958,317.289l-0.627,0.824l0.123,0.891l1.324-1.079L271.958,317.289L271.958,317.289z"></path><path d="M269.627,318.688l-0.941,0.063l-0.062,0.822l0.629,0.13l0.943-0.443L269.627,318.688L269.627,318.688z"></path><path d="M263.385,306.491l-0.879,2.095l-1.512,2.669l-2.646,0.189l-1.136,1.334l0.19,4.066l-1.638,1.907    l0.19,3.237l1.386,1.587l1.639-0.191l1.639-1.208l-0.375-1.904l3.779-6.545l-0.758-0.825l0.758-1.587l0.82,0.253l0.252-0.634    l-0.758-3.238l-0.442-1.333L263.385,306.491L263.385,306.491z"></path><path d="M257.338,305.793l0.19,0.632l0.82,0.131l0.312-0.827L257.338,305.793L257.338,305.793z"></path><path d="M258.534,307.062l0.313,0.702h0.506l0.254-0.892L258.534,307.062L258.534,307.062z"></path><path d="M267.546,300.453l-0.25,0.508l0.688,0.574l0.506-0.574L267.546,300.453L267.546,300.453z"></path><path d="M271.078,296.641l-0.758,0.509l0.568,0.892h0.758L271.078,296.641L271.078,296.641z"></path><path d="M271.391,298.866l-0.503,0.57l0.376,0.574l0.691,0.128l0.062-1.21L271.391,298.866L271.391,298.866z"></path><path d="M190.245,257.125l-0.725,0.418l0.335,0.34L190.245,257.125L190.245,257.125z"></path><path d="M187.727,257.202l-0.897,0.229l0.446,0.679h0.676L187.727,257.202L187.727,257.202z"></path><path d="M185.592,256.525l-0.563,0.567l0.787,0.68l0.447-1.02L185.592,256.525L185.592,256.525z"></path><path d="M178.629,272.371l-0.787,0.452l0.564,0.451l0.674-0.339L178.629,272.371L178.629,272.371z"></path><path d="M180.562,273.281l-0.514,0.456l0.365,0.675l0.877-0.393L180.562,273.281L180.562,273.281z"></path><path d="M179.44,274.561l-0.658,0.395l0.708,0.95l0.558-0.295L179.44,274.561L179.44,274.561z"></path></g></g></svg></g></g><line x1="112.27400000000002" y1="41" x2="145.174" y2="41" stroke="#0d0809" stroke-linecap="round"></line><path fill="#0d0809" fill-rule="nonzero" d="M6.36 19.99Q7.68 19.99 8.45 19.70Q9.22 19.42 9.67 18.79Q10.13 18.17 10.56 16.97L10.56 16.97Q11.26 17.18 11.62 17.54L11.62 17.54Q11.16 18.96 10.87 21.12L10.87 21.12Q9 21.07 6.22 21.07L6.22 21.07Q1.80 21.07 0 21.14L0 21.14Q0 20.45 0.12 20.11L0.12 20.11Q0.79 20.06 1.14 19.87Q1.49 19.68 1.64 19.19Q1.80 18.70 1.80 17.76L1.80 17.76L1.80 7.90Q1.80 6.70 1.45 6.28Q1.10 5.86 0.14 5.81L0.14 5.81Q0.02 5.47 0.02 4.78L0.02 4.78Q1.42 4.85 2.93 4.85L2.93 4.85Q4.39 4.85 5.83 4.78L5.83 4.78Q5.83 5.47 5.71 5.81L5.71 5.81Q5.04 5.86 4.69 6.04Q4.34 6.22 4.20 6.67Q4.06 7.13 4.06 7.97L4.06 7.97L4.06 17.76Q4.06 18.70 4.22 19.15Q4.39 19.61 4.85 19.80Q5.30 19.99 6.22 19.99L6.22 19.99L6.36 19.99ZM13.01 4.51L13.01 4.73Q12.82 6.10 12.58 9.62L12.58 9.62Q12.29 9.62 12 9.56Q11.71 9.50 11.62 9.38L11.62 9.38Q11.50 6.60 11.14 4.44L11.14 4.44Q11.47 4.39 11.86 4.25Q12.24 4.10 12.50 3.94L12.50 3.94Q12.72 3.98 12.85 4.13Q12.98 4.27 13.01 4.51L13.01 4.51ZM31.63 16.97Q32.33 17.18 32.69 17.54L32.69 17.54Q32.23 18.96 31.94 21.12L31.94 21.12Q30.07 21.07 26.81 21.07L26.81 21.07Q22.39 21.07 20.59 21.14L20.59 21.14Q20.59 20.45 20.71 20.11L20.71 20.11Q21.38 20.06 21.73 19.87Q22.08 19.68 22.22 19.20Q22.37 18.72 22.37 17.76L22.37 17.76L22.37 7.90Q22.37 6.70 22.02 6.28Q21.67 5.86 20.71 5.81L20.71 5.81Q20.59 5.47 20.59 4.78L20.59 4.78Q22.01 4.85 24.62 4.85L24.62 4.85Q28.99 4.85 31.37 4.78L31.37 4.78Q31.61 7.42 31.87 8.57L31.87 8.57Q31.51 8.86 30.79 8.86L30.79 8.86Q30.67 7.51 29.82 6.66Q28.97 5.81 26.86 5.81L26.86 5.81L24.62 5.81L24.62 12.38L26.14 12.38Q27.65 12.38 28.21 11.99Q28.78 11.59 28.80 10.44L28.80 10.44Q29.38 10.27 29.95 10.27L29.95 10.27Q29.90 11.09 29.90 12.89L29.90 12.89Q29.90 14.86 29.95 15.67L29.95 15.67Q29.30 15.67 28.85 15.55L28.85 15.55Q28.75 14.30 28.19 13.86Q27.62 13.42 26.14 13.42L26.14 13.42L24.62 13.42L24.62 17.76Q24.62 18.67 24.79 19.14Q24.96 19.61 25.43 19.80Q25.90 19.99 26.81 19.99L26.81 19.99L26.95 19.99Q28.61 19.99 29.50 19.66Q30.38 19.32 30.80 18.72Q31.22 18.12 31.63 16.97L31.63 16.97ZM26.33 3.50Q26.04 3.50 25.80 3.48Q25.56 3.46 25.37 3.38L25.37 3.38Q26.23 1.63 26.71 0.17L26.71 0.17Q27.38 0 27.86 0L27.86 0Q28.49 0 28.99 0.19L28.99 0.19Q27.65 1.80 26.33 3.50L26.33 3.50ZM41.33 4.80Q44.14 4.80 45.46 6.11Q46.78 7.42 46.78 9.46L46.78 9.46Q46.78 10.90 46.15 12.16Q45.53 13.42 44.29 14.21Q43.06 15 41.33 15L41.33 15Q40.32 15 39.65 14.74L39.65 14.74Q39.60 14.45 39.60 14.28L39.60 14.28Q39.60 13.99 39.67 13.75L39.67 13.75Q40.27 13.90 40.94 13.90L40.94 13.90Q44.33 13.90 44.33 10.15L44.33 10.15Q44.33 8.14 43.34 7.00Q42.36 5.86 40.27 5.86L40.27 5.86Q39.74 5.86 39.05 6.00L39.05 6.00L39.05 17.54Q39.05 18.58 39.26 19.12Q39.48 19.66 39.92 19.86Q40.37 20.06 41.18 20.11L41.18 20.11Q41.30 20.45 41.30 21.14L41.30 21.14Q40.20 21.07 38.28 21.07L38.28 21.07Q35.95 21.07 35.02 21.14L35.02 21.14Q35.02 20.45 35.14 20.11L35.14 20.11Q36.10 20.06 36.44 19.64Q36.79 19.22 36.79 18.02L36.79 18.02L36.79 7.90Q36.79 6.70 36.44 6.28Q36.10 5.86 35.14 5.81L35.14 5.81Q35.02 5.47 35.02 4.78L35.02 4.78Q36.26 4.85 38.28 4.85L38.28 4.85L41.33 4.80ZM50.74 7.90Q50.74 6.70 50.39 6.28Q50.04 5.86 49.08 5.81L49.08 5.81Q48.96 5.47 48.96 4.78L48.96 4.78Q50.28 4.85 51.86 4.85L51.86 4.85Q53.33 4.85 54.77 4.78L54.77 4.78Q54.77 5.47 54.65 5.81L54.65 5.81Q53.69 5.86 53.34 6.28Q52.99 6.70 52.99 7.90L52.99 7.90L52.99 18.02Q52.99 19.22 53.34 19.64Q53.69 20.06 54.65 20.11L54.65 20.11Q54.77 20.45 54.77 21.14L54.77 21.14Q53.33 21.07 51.86 21.07L51.86 21.07Q50.18 21.07 48.96 21.14L48.96 21.14Q48.96 20.45 49.08 20.11L49.08 20.11Q50.04 20.06 50.39 19.64Q50.74 19.22 50.74 18.02L50.74 18.02L50.74 7.90ZM64.58 21.29Q62.38 21.29 60.64 20.22Q58.90 19.15 57.92 17.23Q56.95 15.31 56.95 12.84L56.95 12.84Q56.95 10.20 58.07 8.35Q59.18 6.50 61.02 5.57Q62.86 4.63 64.97 4.63L64.97 4.63Q66.43 4.63 67.68 4.93Q68.93 5.23 70.30 5.88L70.30 5.88Q70.03 7.13 70.03 9.60L70.03 9.60Q69.50 9.82 68.76 9.82L68.76 9.82Q68.66 7.42 67.78 6.52Q66.89 5.62 65.16 5.62L65.16 5.62Q63.22 5.62 61.94 6.53Q60.67 7.44 60.07 8.93Q59.47 10.42 59.47 12.19L59.47 12.19Q59.47 14.35 60.20 16.09Q60.94 17.83 62.33 18.83Q63.72 19.82 65.59 19.82L65.59 19.82Q66.72 19.82 67.92 19.44Q69.12 19.06 70.15 18.41L70.15 18.41Q70.30 18.53 70.43 18.76Q70.56 18.98 70.58 19.15L70.58 19.15Q69.12 20.28 67.74 20.78Q66.36 21.29 64.58 21.29L64.58 21.29ZM84.17 16.97Q84.86 17.18 85.22 17.54L85.22 17.54Q84.77 18.96 84.48 21.12L84.48 21.12Q82.61 21.07 79.34 21.07L79.34 21.07Q74.93 21.07 73.13 21.14L73.13 21.14Q73.13 20.45 73.25 20.11L73.25 20.11Q73.92 20.06 74.27 19.87Q74.62 19.68 74.76 19.20Q74.90 18.72 74.90 17.76L74.90 17.76L74.90 7.90Q74.90 6.70 74.56 6.28Q74.21 5.86 73.25 5.81L73.25 5.81Q73.13 5.47 73.13 4.78L73.13 4.78Q74.54 4.85 77.16 4.85L77.16 4.85Q81.53 4.85 83.90 4.78L83.90 4.78Q84.14 7.42 84.41 8.57L84.41 8.57Q84.05 8.86 83.33 8.86L83.33 8.86Q83.21 7.51 82.36 6.66Q81.50 5.81 79.39 5.81L79.39 5.81L77.16 5.81L77.16 12.38L78.67 12.38Q80.18 12.38 80.75 11.99Q81.31 11.59 81.34 10.44L81.34 10.44Q81.91 10.27 82.49 10.27L82.49 10.27Q82.44 11.09 82.44 12.89L82.44 12.89Q82.44 14.86 82.49 15.67L82.49 15.67Q81.84 15.67 81.38 15.55L81.38 15.55Q81.29 14.30 80.72 13.86Q80.16 13.42 78.67 13.42L78.67 13.42L77.16 13.42L77.16 17.76Q77.16 18.67 77.33 19.14Q77.50 19.61 77.96 19.80Q78.43 19.99 79.34 19.99L79.34 19.99L79.49 19.99Q81.14 19.99 82.03 19.66Q82.92 19.32 83.34 18.72Q83.76 18.12 84.17 16.97L84.17 16.97ZM98.76 17.71Q99.31 18.65 99.70 19.10Q100.08 19.56 100.60 19.78Q101.11 19.99 102 20.04L102 20.04Q102 20.74 101.90 21.07L101.90 21.07Q99.46 21.07 98.14 21.29L98.14 21.29Q97.22 19.82 96.53 18.46L96.53 18.46L96.24 17.93Q95.50 16.58 94.88 15.68Q94.27 14.78 93.26 13.70L93.26 13.70L92.52 13.73Q92.16 13.73 91.58 13.68L91.58 13.68L91.58 18.02Q91.58 19.22 91.91 19.64Q92.23 20.06 93.17 20.11L93.17 20.11Q93.29 20.47 93.29 21.14L93.29 21.14Q92.26 21.07 90.43 21.07L90.43 21.07Q88.63 21.07 87.55 21.14L87.55 21.14Q87.55 20.50 87.67 20.11L87.67 20.11Q88.66 20.06 88.99 19.64Q89.33 19.22 89.33 18.02L89.33 18.02L89.33 7.90Q89.33 6.70 88.98 6.25Q88.63 5.81 87.67 5.81L87.67 5.81Q87.55 5.42 87.55 4.80L87.55 4.80Q88.51 4.85 90.43 4.85L90.43 4.85Q91.75 4.85 92.42 4.82L92.42 4.82L94.44 4.80Q97.03 4.80 98.35 5.92Q99.67 7.03 99.67 8.83L99.67 8.83Q99.67 10.42 98.60 11.57Q97.54 12.72 95.64 13.20L95.64 13.20Q96.48 14.09 97.06 14.94Q97.63 15.79 98.76 17.71L98.76 17.71ZM91.58 12.58Q92.16 12.65 92.64 12.65L92.64 12.65Q94.73 12.65 96.02 11.75Q97.32 10.85 97.32 9.07L97.32 9.07Q97.32 7.56 96.37 6.71Q95.42 5.86 93.36 5.86L93.36 5.86Q92.50 5.86 91.58 6.05L91.58 6.05L91.58 12.58ZM105.74 7.90Q105.74 6.70 105.40 6.28Q105.05 5.86 104.09 5.81L104.09 5.81Q103.97 5.47 103.97 4.78L103.97 4.78Q105.29 4.85 106.87 4.85L106.87 4.85Q108.34 4.85 109.78 4.78L109.78 4.78Q109.78 5.47 109.66 5.81L109.66 5.81Q108.70 5.86 108.35 6.28Q108 6.70 108 7.90L108 7.90L108 18.02Q108 19.22 108.35 19.64Q108.70 20.06 109.66 20.11L109.66 20.11Q109.78 20.45 109.78 21.14L109.78 21.14Q108.34 21.07 106.87 21.07L106.87 21.07Q105.19 21.07 103.97 21.14L103.97 21.14Q103.97 20.45 104.09 20.11L104.09 20.11Q105.05 20.06 105.40 19.64Q105.74 19.22 105.74 18.02L105.74 18.02L105.74 7.90ZM123.50 16.97Q124.20 17.18 124.56 17.54L124.56 17.54Q124.10 18.96 123.82 21.12L123.82 21.12Q121.94 21.07 118.68 21.07L118.68 21.07Q114.26 21.07 112.46 21.14L112.46 21.14Q112.46 20.45 112.58 20.11L112.58 20.11Q113.26 20.06 113.60 19.87Q113.95 19.68 114.10 19.20Q114.24 18.72 114.24 17.76L114.24 17.76L114.24 7.90Q114.24 6.70 113.89 6.28Q113.54 5.86 112.58 5.81L112.58 5.81Q112.46 5.47 112.46 4.78L112.46 4.78Q113.88 4.85 116.50 4.85L116.50 4.85Q120.86 4.85 123.24 4.78L123.24 4.78Q123.48 7.42 123.74 8.57L123.74 8.57Q123.38 8.86 122.66 8.86L122.66 8.86Q122.54 7.51 121.69 6.66Q120.84 5.81 118.73 5.81L118.73 5.81L116.50 5.81L116.50 12.38L118.01 12.38Q119.52 12.38 120.08 11.99Q120.65 11.59 120.67 10.44L120.67 10.44Q121.25 10.27 121.82 10.27L121.82 10.27Q121.78 11.09 121.78 12.89L121.78 12.89Q121.78 14.86 121.82 15.67L121.82 15.67Q121.18 15.67 120.72 15.55L120.72 15.55Q120.62 14.30 120.06 13.86Q119.50 13.42 118.01 13.42L118.01 13.42L116.50 13.42L116.50 17.76Q116.50 18.67 116.66 19.14Q116.83 19.61 117.30 19.80Q117.77 19.99 118.68 19.99L118.68 19.99L118.82 19.99Q120.48 19.99 121.37 19.66Q122.26 19.32 122.68 18.72Q123.10 18.12 123.50 16.97L123.50 16.97ZM146.50 20.11Q146.64 20.59 146.64 21.14L146.64 21.14Q145.20 21.07 143.90 21.07L143.90 21.07Q142.63 21.07 141.19 21.14L141.19 21.14Q141.19 20.45 141.36 20.11L141.36 20.11Q142.03 20.04 142.31 19.90Q142.58 19.75 142.58 19.42L142.58 19.42Q142.58 19.13 142.22 18.24L142.22 18.24L141.17 15.79Q137.35 15.79 134.83 15.89L134.83 15.89L134.18 17.54Q133.80 18.55 133.80 19.13L133.80 19.13Q133.80 19.61 134.10 19.84Q134.40 20.06 135.05 20.11L135.05 20.11Q135.22 20.52 135.22 21.14L135.22 21.14Q134.40 21.07 132.94 21.07L132.94 21.07Q132.31 21.07 130.94 21.14L130.94 21.14Q130.94 20.54 131.11 20.14L131.11 20.14Q131.74 20.02 132.10 19.51Q132.46 19.01 133.03 17.54L133.03 17.54L138 4.80Q138.41 4.70 138.94 4.70L138.94 4.70L144.65 17.81Q145.25 19.15 145.60 19.58Q145.94 20.02 146.50 20.11L146.50 20.11ZM135.26 14.71L140.71 14.71L138.89 10.44Q138.17 8.78 137.83 7.82L137.83 7.82Q137.57 8.64 136.92 10.42L136.92 10.42L135.26 14.71ZM154.75 5.81L152.62 5.81L152.62 12.86L154.27 12.86Q155.78 12.86 156.35 12.47Q156.91 12.07 156.94 10.92L156.94 10.92Q157.51 10.75 158.09 10.75L158.09 10.75Q158.04 11.57 158.04 13.37L158.04 13.37Q158.04 15.34 158.09 16.15L158.09 16.15Q157.44 16.15 156.98 16.03L156.98 16.03Q156.89 14.78 156.32 14.34Q155.76 13.90 154.27 13.90L154.27 13.90L152.62 13.90L152.62 17.54Q152.62 18.58 152.83 19.12Q153.05 19.66 153.49 19.86Q153.94 20.06 154.75 20.11L154.75 20.11Q154.87 20.45 154.87 21.14L154.87 21.14Q153.77 21.07 151.85 21.07L151.85 21.07Q149.52 21.07 148.58 21.14L148.58 21.14Q148.58 20.45 148.70 20.11L148.70 20.11Q149.66 20.06 150.01 19.64Q150.36 19.22 150.36 18.02L150.36 18.02L150.36 7.90Q150.36 6.70 150.01 6.28Q149.66 5.86 148.70 5.81L148.70 5.81Q148.58 5.47 148.58 4.78L148.58 4.78Q150.17 4.85 152.59 4.85L152.59 4.85Q156.89 4.85 159.26 4.78L159.26 4.78Q159.50 7.42 159.77 8.57L159.77 8.57Q159.41 8.86 158.69 8.86L158.69 8.86Q158.57 7.51 157.72 6.66Q156.86 5.81 154.75 5.81L154.75 5.81ZM173.26 17.71Q173.81 18.65 174.19 19.10Q174.58 19.56 175.09 19.78Q175.61 19.99 176.50 20.04L176.50 20.04Q176.50 20.74 176.40 21.07L176.40 21.07Q173.95 21.07 172.63 21.29L172.63 21.29Q171.72 19.82 171.02 18.46L171.02 18.46L170.74 17.93Q169.99 16.58 169.38 15.68Q168.77 14.78 167.76 13.70L167.76 13.70L167.02 13.73Q166.66 13.73 166.08 13.68L166.08 13.68L166.08 18.02Q166.08 19.22 166.40 19.64Q166.73 20.06 167.66 20.11L167.66 20.11Q167.78 20.47 167.78 21.14L167.78 21.14Q166.75 21.07 164.93 21.07L164.93 21.07Q163.13 21.07 162.05 21.14L162.05 21.14Q162.05 20.50 162.17 20.11L162.17 20.11Q163.15 20.06 163.49 19.64Q163.82 19.22 163.82 18.02L163.82 18.02L163.82 7.90Q163.82 6.70 163.48 6.25Q163.13 5.81 162.17 5.81L162.17 5.81Q162.05 5.42 162.05 4.80L162.05 4.80Q163.01 4.85 164.93 4.85L164.93 4.85Q166.25 4.85 166.92 4.82L166.92 4.82L168.94 4.80Q171.53 4.80 172.85 5.92Q174.17 7.03 174.17 8.83L174.17 8.83Q174.17 10.42 173.10 11.57Q172.03 12.72 170.14 13.20L170.14 13.20Q170.98 14.09 171.55 14.94Q172.13 15.79 173.26 17.71L173.26 17.71ZM166.08 12.58Q166.66 12.65 167.14 12.65L167.14 12.65Q169.22 12.65 170.52 11.75Q171.82 10.85 171.82 9.07L171.82 9.07Q171.82 7.56 170.87 6.71Q169.92 5.86 167.86 5.86L167.86 5.86Q166.99 5.86 166.08 6.05L166.08 6.05L166.08 12.58ZM180.24 7.90Q180.24 6.70 179.89 6.28Q179.54 5.86 178.58 5.81L178.58 5.81Q178.46 5.47 178.46 4.78L178.46 4.78Q179.78 4.85 181.37 4.85L181.37 4.85Q182.83 4.85 184.27 4.78L184.27 4.78Q184.27 5.47 184.15 5.81L184.15 5.81Q183.19 5.86 182.84 6.28Q182.50 6.70 182.50 7.90L182.50 7.90L182.50 18.02Q182.50 19.22 182.84 19.64Q183.19 20.06 184.15 20.11L184.15 20.11Q184.27 20.45 184.27 21.14L184.27 21.14Q182.83 21.07 181.37 21.07L181.37 21.07Q179.69 21.07 178.46 21.14L178.46 21.14Q178.46 20.45 178.58 20.11L178.58 20.11Q179.54 20.06 179.89 19.64Q180.24 19.22 180.24 18.02L180.24 18.02L180.24 7.90ZM194.09 21.29Q191.88 21.29 190.14 20.22Q188.40 19.15 187.43 17.23Q186.46 15.31 186.46 12.84L186.46 12.84Q186.46 10.20 187.57 8.35Q188.69 6.50 190.52 5.57Q192.36 4.63 194.47 4.63L194.47 4.63Q195.94 4.63 197.18 4.93Q198.43 5.23 199.80 5.88L199.80 5.88Q199.54 7.13 199.54 9.60L199.54 9.60Q199.01 9.82 198.26 9.82L198.26 9.82Q198.17 7.42 197.28 6.52Q196.39 5.62 194.66 5.62L194.66 5.62Q192.72 5.62 191.45 6.53Q190.18 7.44 189.58 8.93Q188.98 10.42 188.98 12.19L188.98 12.19Q188.98 14.35 189.71 16.09Q190.44 17.83 191.83 18.83Q193.22 19.82 195.10 19.82L195.10 19.82Q196.22 19.82 197.42 19.44Q198.62 19.06 199.66 18.41L199.66 18.41Q199.80 18.53 199.93 18.76Q200.06 18.98 200.09 19.15L200.09 19.15Q198.62 20.28 197.24 20.78Q195.86 21.29 194.09 21.29L194.09 21.29ZM216.96 20.11Q217.10 20.59 217.10 21.14L217.10 21.14Q215.66 21.07 214.37 21.07L214.37 21.07Q213.10 21.07 211.66 21.14L211.66 21.14Q211.66 20.45 211.82 20.11L211.82 20.11Q212.50 20.04 212.77 19.90Q213.05 19.75 213.05 19.42L213.05 19.42Q213.05 19.13 212.69 18.24L212.69 18.24L211.63 15.79Q207.82 15.79 205.30 15.89L205.30 15.89L204.65 17.54Q204.26 18.55 204.26 19.13L204.26 19.13Q204.26 19.61 204.56 19.84Q204.86 20.06 205.51 20.11L205.51 20.11Q205.68 20.52 205.68 21.14L205.68 21.14Q204.86 21.07 203.40 21.07L203.40 21.07Q202.78 21.07 201.41 21.14L201.41 21.14Q201.41 20.54 201.58 20.14L201.58 20.14Q202.20 20.02 202.56 19.51Q202.92 19.01 203.50 17.54L203.50 17.54L208.46 4.80Q208.87 4.70 209.40 4.70L209.40 4.70L215.11 17.81Q215.71 19.15 216.06 19.58Q216.41 20.02 216.96 20.11L216.96 20.11ZM205.73 14.71L211.18 14.71L209.35 10.44Q208.63 8.78 208.30 7.82L208.30 7.82Q208.03 8.64 207.38 10.42L207.38 10.42L205.73 14.71ZM220.82 7.90Q220.82 6.70 220.48 6.28Q220.13 5.86 219.17 5.81L219.17 5.81Q219.05 5.47 219.05 4.78L219.05 4.78Q220.37 4.85 221.95 4.85L221.95 4.85Q223.42 4.85 224.86 4.78L224.86 4.78Q224.86 5.47 224.74 5.81L224.74 5.81Q223.78 5.86 223.43 6.28Q223.08 6.70 223.08 7.90L223.08 7.90L223.08 18.02Q223.08 19.22 223.43 19.64Q223.78 20.06 224.74 20.11L224.74 20.11Q224.86 20.45 224.86 21.14L224.86 21.14Q223.42 21.07 221.95 21.07L221.95 21.07Q220.27 21.07 219.05 21.14L219.05 21.14Q219.05 20.45 219.17 20.11L219.17 20.11Q220.13 20.06 220.48 19.64Q220.82 19.22 220.82 18.02L220.82 18.02L220.82 7.90ZM240.74 4.85Q242.04 4.85 243.02 4.78L243.02 4.78Q243.02 5.38 242.90 5.81L242.90 5.81Q242.35 5.81 242.05 6.12Q241.75 6.43 241.62 7.16Q241.49 7.90 241.49 9.22L241.49 9.22L241.49 21.07Q241.10 21.22 240.46 21.22L240.46 21.22L230.54 8.28L230.54 16.58Q230.54 17.98 230.69 18.72Q230.83 19.46 231.19 19.79Q231.55 20.11 232.20 20.11L232.20 20.11Q232.32 20.47 232.32 21.14L232.32 21.14Q231.24 21.07 229.94 21.07L229.94 21.07Q228.46 21.07 227.54 21.14L227.54 21.14Q227.54 20.47 227.66 20.11L227.66 20.11Q228.31 20.11 228.67 19.79Q229.03 19.46 229.18 18.72Q229.32 17.98 229.32 16.58L229.32 16.58L229.32 6.67L229.22 6.55Q228.89 6.14 228.59 6.00Q228.29 5.86 227.66 5.81L227.66 5.81Q227.54 5.38 227.54 4.78L227.54 4.78Q228.26 4.85 229.32 4.85L229.32 4.85Q230.28 4.85 230.93 4.78L230.93 4.78L240.26 17.16L240.26 9.22Q240.26 7.87 240.12 7.15Q239.98 6.43 239.62 6.12Q239.26 5.81 238.61 5.81L238.61 5.81Q238.49 5.11 238.49 4.78L238.49 4.78Q239.52 4.85 240.74 4.85L240.74 4.85ZM256.39 16.97Q257.09 17.18 257.45 17.54L257.45 17.54Q256.99 18.96 256.70 21.12L256.70 21.12Q254.83 21.07 251.57 21.07L251.57 21.07Q247.15 21.07 245.35 21.14L245.35 21.14Q245.35 20.45 245.47 20.11L245.47 20.11Q246.14 20.06 246.49 19.87Q246.84 19.68 246.98 19.20Q247.13 18.72 247.13 17.76L247.13 17.76L247.13 7.90Q247.13 6.70 246.78 6.28Q246.43 5.86 245.47 5.81L245.47 5.81Q245.35 5.47 245.35 4.78L245.35 4.78Q246.77 4.85 249.38 4.85L249.38 4.85Q253.75 4.85 256.13 4.78L256.13 4.78Q256.37 7.42 256.63 8.57L256.63 8.57Q256.27 8.86 255.55 8.86L255.55 8.86Q255.43 7.51 254.58 6.66Q253.73 5.81 251.62 5.81L251.62 5.81L249.38 5.81L249.38 12.38L250.90 12.38Q252.41 12.38 252.97 11.99Q253.54 11.59 253.56 10.44L253.56 10.44Q254.14 10.27 254.71 10.27L254.71 10.27Q254.66 11.09 254.66 12.89L254.66 12.89Q254.66 14.86 254.71 15.67L254.71 15.67Q254.06 15.67 253.61 15.55L253.61 15.55Q253.51 14.30 252.95 13.86Q252.38 13.42 250.90 13.42L250.90 13.42L249.38 13.42L249.38 17.76Q249.38 18.67 249.55 19.14Q249.72 19.61 250.19 19.80Q250.66 19.99 251.57 19.99L251.57 19.99L251.71 19.99Q253.37 19.99 254.26 19.66Q255.14 19.32 255.56 18.72Q255.98 18.12 256.39 16.97L256.39 16.97Z" transform="translate(0, 47)"></path></svg>